<?xml version="1.0" encoding="UTF-8"?>
<svg width="15px" height="21px" viewBox="0 0 15 21" version="1.1" xmlns="http://www.w3.org/2000/svg" xmlns:xlink="http://www.w3.org/1999/xlink">
    <!-- Generator: Sketch 60.1 (88133) - https://sketch.com -->
    <title>ic_none</title>
    <desc>Created with Sketch.</desc>
    <g id="ArendaApp-(Android)" stroke="none" stroke-width="1" fill="none" fill-rule="evenodd">
        <g id="Category-icon" transform="translate(-24.000000, -124.000000)" fill="#3A3A3A" fill-rule="nonzero">
            <path d="M31.9995556,137.741397 L32.3061587,135.846032 C35.5115556,135.260698 38.048,133.69981 38.048,130.020571 L38.048,129.964825 C38.048,126.146222 35.2328254,124 31.079746,124 C27.8743492,124 25.672381,125.254286 24,127.149651 L26.5643175,129.936952 C27.9022222,128.571175 29.323746,127.874349 30.996127,127.874349 C32.78,127.874349 33.7834286,128.71054 33.7834286,130.076317 L33.7834286,130.132063 C33.7834286,131.776571 32.3340317,132.752127 28.6547937,132.891492 L28.5154286,133.030857 L29.1565079,137.741397 L31.9995556,137.741397 Z M32.752127,144.542413 L32.752127,140.026984 L28.2366984,140.026984 L28.2366984,144.542413 L32.752127,144.542413 Z" id="ic_none"></path>
        </g>
    </g>
</svg>