<?xml version="1.0" encoding="UTF-8"?>
<svg width="22px" height="11px" viewBox="0 0 22 11" version="1.1" xmlns="http://www.w3.org/2000/svg" xmlns:xlink="http://www.w3.org/1999/xlink">
    <!-- Generator: Sketch 60.1 (88133) - https://sketch.com -->
    <title>ic_transport</title>
    <desc>Created with Sketch.</desc>
    <g id="ArendaApp-(Android)" stroke="none" stroke-width="1" fill="none" fill-rule="evenodd">
        <g id="Category-icon" transform="translate(-13.000000, -96.000000)" stroke="#3A3A3A">
            <g id="ic_transport" transform="translate(14.000000, 97.000000)">
                <g>
                    <path d="M8.58587849,0.225944171 C12.3516147,-0.527203065 16.0420361,0.602517789 19.6571429,3.61510673 L19.6571429,3.61510673 L19.6571429,7.45615764 L17.6236453,7.45615764 L17.6236453,7.45615764 C17.6236453,6.582659 16.9155348,5.87454844 16.0420361,5.87454844 C15.1685375,5.87454844 14.4604269,6.582659 14.4604269,7.45615764 L4.51888342,7.45615764 L4.51888342,7.45615764 C4.51888342,6.582659 3.81077286,5.87454844 2.93727422,5.87454844 C2.06377558,5.87454844 1.35566502,6.582659 1.35566502,7.45615764 L4.61852778e-14,7.45615764 L4.61852778e-14,7.45615764 L4.61852778e-14,5.19671593 C0.301258894,4.29293924 1.12972085,3.76573618 2.48538588,3.61510673 L2.48538588,3.61510673 L5.19671593,3.61510673 C5.49797482,1.80755337 6.62769568,0.677832512 8.58587849,0.225944171 Z" id="Combined-Shape" stroke-linejoin="round"></path>
                    <circle id="Oval-Copy-2" cx="2.93727422" cy="7.45615764" r="1.5816092"></circle>
                    <circle id="Oval-Copy-3" cx="16.0420361" cy="7.45615764" r="1.5816092"></circle>
                </g>
            </g>
        </g>
    </g>
</svg>